<svg width="154" height="154" viewBox="0 0 154 154" fill="none" xmlns="http://www.w3.org/2000/svg">
<mask id="mask0_36_1776" style="mask-type:alpha" maskUnits="userSpaceOnUse" x="0" y="0" width="154" height="154">
<rect width="154" height="154" rx="77" fill="#D9D9D9"/>
</mask>
<g mask="url(#mask0_36_1776)">
<path d="M77 111V40C79.048 46.0857 90.9378 46.1984 96.6267 45.494C96.6267 56.6512 104.876 58.3135 109 57.75C106.952 92.2357 86.8133 107.619 77 111Z" fill="url(#paint0_linear_36_1776)"/>
<path d="M77 111V40C74.952 46.0857 63.0622 46.1984 57.3733 45.494C57.3733 56.6512 49.1244 58.3135 45 57.75C47.048 92.2357 67.1867 107.619 77 111Z" fill="url(#paint1_linear_36_1776)"/>
<path d="M143.916 123C142.877 123 141.834 122.954 140.784 122.867C132.118 122.134 125.402 118.3 118.287 114.238C117.237 113.638 116.156 113.022 115.064 112.41C111.931 110.663 108.685 109.53 105.42 109.048C102.359 108.596 99.1853 108.694 95.9807 109.352C92.0139 112.927 87.7134 115.709 83.2915 118.482C82.7568 118.817 82.1652 119.048 81.6646 119.113C80.963 119.204 80.4283 118.995 80.1173 118.501C79.8784 118.121 79.8329 117.608 79.9998 117.061C80.3828 115.781 81.5622 114.971 82.6354 114.31C84.8388 112.954 87.0308 111.814 89.1545 110.913C91.3654 109.979 93.5726 109.276 95.7115 108.827C95.9504 108.611 96.1931 108.387 96.432 108.163C96.8985 107.722 97.3953 107.254 97.8655 106.764C103.539 100.882 108.056 94.028 111.294 86.3831C113.213 81.8578 114.696 77.0057 115.705 71.9636C116.679 67.0811 117.218 60.5078 117.214 53.4481C117.214 52.0422 116.061 50.8986 114.647 50.8986C112.166 50.8986 110.058 50.321 108.378 49.1887C107.039 48.2844 105.932 47.004 105.082 45.3815C104.093 43.4855 103.721 41.5249 103.399 39.5187C103.27 38.7132 102.898 37.9837 102.352 37.4593C101.772 36.9008 101.04 36.6082 100.224 36.6082C85.4114 36.6082 83.1284 34.5488 81.4636 33.0442C80.5383 32.1817 79.8594 31.5699 77.0986 31.5699H76.9204C74.9749 31.5699 73.7651 32.0069 72.3051 33.2418C70.4013 34.849 68.1373 35.4341 66.3776 35.7647C63.8368 36.2435 61.2276 36.403 59.0053 36.498C58.5047 36.5208 57.9093 36.498 57.2836 36.479C54.8413 36.3954 51.8074 36.2929 50.8669 38.3712C50.6014 38.9564 50.5294 39.6289 50.4535 40.3356C50.4042 40.7802 50.3549 41.24 50.2563 41.6769C49.9302 43.0752 49.4941 44.2834 48.9214 45.3739C48.072 46.9964 46.9646 48.2806 45.6259 49.1811C43.9459 50.3134 41.8373 50.891 39.3571 50.891C37.9426 50.891 36.7935 52.0346 36.7897 53.4405C36.7897 60.5002 37.3244 67.0773 38.2991 71.956C39.3078 76.9981 40.7906 81.8502 42.7096 86.3755C45.9482 94.0166 50.4649 100.875 56.1383 106.753C56.6123 107.243 57.1053 107.714 57.5756 108.151C57.8145 108.375 58.0572 108.599 58.2961 108.816C60.4388 109.264 62.6422 109.967 64.8531 110.902C66.9768 111.803 69.1688 112.942 71.3722 114.299C72.4454 114.96 73.621 115.769 74.0078 117.05C74.1709 117.597 74.1292 118.11 73.8903 118.49C73.5793 118.984 73.0446 119.193 72.343 119.102C71.8424 119.037 71.2508 118.805 70.7161 118.471C66.2942 115.701 61.9975 112.916 58.0269 109.34C54.8261 108.687 51.6519 108.584 48.5877 109.036C45.3225 109.519 42.0762 110.651 38.9438 112.399C37.8554 113.007 36.7707 113.626 35.7203 114.227C28.6058 118.288 21.8896 122.122 13.224 122.856C7.57343 123.334 2.05556 122.517 -2.73039 120.496C-5.24851 119.432 -7.55046 118.038 -9.5642 116.358C-11.6841 114.591 -13.5007 112.494 -14.9569 110.127C-15.0404 109.994 -14.9986 109.819 -14.8659 109.736C-14.7332 109.652 -14.5587 109.694 -14.4753 109.827C-13.0494 112.141 -11.2746 114.189 -9.20393 115.918C-7.23191 117.563 -4.97925 118.927 -2.51422 119.968C2.1845 121.955 7.61136 122.757 13.1709 122.286C21.7113 121.564 28.3783 117.76 35.432 113.729C36.4825 113.129 37.5671 112.509 38.6593 111.901C41.8525 110.119 45.1632 108.964 48.4967 108.47C51.3334 108.049 54.2649 108.098 57.2229 108.607C57.2077 108.592 57.1888 108.577 57.1736 108.561C56.7033 108.117 56.199 107.642 55.7173 107.144C49.9985 101.213 45.4401 94.2977 42.1748 86.5921C40.2407 82.0326 38.7466 77.1425 37.7302 72.0624C36.748 67.1457 36.2057 60.5306 36.2095 53.4329C36.2095 51.7117 37.6164 50.3134 39.342 50.3134C41.7046 50.3134 43.707 49.7701 45.2922 48.7024C46.5512 47.8513 47.5979 46.643 48.4019 45.1042C48.9518 44.0555 49.3689 42.889 49.6875 41.5401C49.7823 41.1374 49.8278 40.7156 49.8733 40.2673C49.9492 39.5453 50.0326 38.7968 50.3322 38.1281C50.8252 37.0376 51.8074 36.3613 53.3319 36.0611C54.5986 35.8103 56.0283 35.8597 57.2874 35.9015C57.9055 35.9205 58.4895 35.9433 58.9674 35.9205C61.1669 35.8255 63.7533 35.6697 66.2601 35.1986C68.8047 34.7198 70.4999 34.0017 71.9258 32.7972C73.4959 31.4901 74.8459 31 76.9166 31H77.0948C80.0756 31 80.9023 31.7447 81.858 32.611C83.4546 34.0549 85.6466 36.0307 100.24 36.0307C101.203 36.0307 102.075 36.3803 102.761 37.0414C103.395 37.6531 103.827 38.4966 103.975 39.4237C104.29 41.3843 104.646 43.2917 105.598 45.1118C106.402 46.6506 107.449 47.8627 108.708 48.71C110.293 49.7777 112.292 50.321 114.658 50.321C116.387 50.321 117.791 51.7231 117.791 53.4405C117.791 60.5382 117.252 67.1533 116.27 72.07C115.253 77.1539 113.759 82.0402 111.825 86.5997C108.56 94.3053 104.002 101.221 98.2827 107.152C97.801 107.65 97.3005 108.128 96.8264 108.569C96.8112 108.584 96.7923 108.599 96.7771 108.615C99.7351 108.102 102.667 108.056 105.503 108.478C108.837 108.972 112.148 110.127 115.341 111.909C116.433 112.517 117.517 113.14 118.568 113.737C125.626 117.764 132.289 121.571 140.829 122.293C146.389 122.764 151.816 121.963 156.514 119.976C158.983 118.934 161.232 117.57 163.204 115.925C165.278 114.196 167.049 112.145 168.475 109.834C168.559 109.701 168.733 109.66 168.866 109.743C168.999 109.827 169.04 110.002 168.957 110.135C167.501 112.502 165.684 114.599 163.564 116.366C161.55 118.045 159.249 119.44 156.73 120.504C152.843 122.153 148.459 123 143.916 123ZM59.1835 109.61C62.9 112.832 66.9048 115.42 71.0195 118C71.6414 118.391 72.946 118.934 73.4086 118.197C73.5565 117.962 73.5793 117.605 73.4617 117.225C73.1356 116.138 72.0586 115.401 71.0764 114.797C68.8995 113.455 66.7303 112.327 64.6332 111.438C62.8014 110.659 60.9735 110.047 59.1835 109.61ZM94.8316 109.61C93.0416 110.047 91.2137 110.659 89.382 111.438C87.2849 112.327 85.1156 113.455 82.9388 114.797C81.9566 115.401 80.8796 116.138 80.5534 117.225C80.4397 117.608 80.4586 117.962 80.6065 118.197C81.073 118.934 82.3738 118.391 82.9957 118C87.1066 115.42 91.1113 112.832 94.8316 109.61Z" fill="#4A4A4A" stroke="#4A4A4A"/>
</g>
<defs>
<linearGradient id="paint0_linear_36_1776" x1="93" y1="40" x2="93" y2="111" gradientUnits="userSpaceOnUse">
<stop stop-color="#CD8900"/>
<stop offset="1" stop-color="#FFBA33"/>
</linearGradient>
<linearGradient id="paint1_linear_36_1776" x1="61" y1="40" x2="61" y2="111" gradientUnits="userSpaceOnUse">
<stop stop-color="#FFE7B7"/>
<stop offset="1" stop-color="#FFBA33"/>
</linearGradient>
</defs>
</svg>
