<svg width="154" height="154" viewBox="0 0 154 154" fill="none" xmlns="http://www.w3.org/2000/svg">
<mask id="mask0_36_1810" style="mask-type:alpha" maskUnits="userSpaceOnUse" x="0" y="0" width="154" height="154">
<rect width="154" height="154" rx="77" fill="#D9D9D9"/>
</mask>
<g mask="url(#mask0_36_1810)">
<ellipse cx="74.2064" cy="68.4335" rx="12.479" ry="25.1145" transform="rotate(20.3298 74.2064 68.4335)" fill="url(#paint0_linear_36_1810)"/>
<ellipse cx="63.2893" cy="65.3232" rx="14.0655" ry="29.4361" transform="rotate(20.3298 63.2893 65.3232)" fill="url(#paint1_linear_36_1810)"/>
<ellipse cx="52.9933" cy="61.52" rx="18.0192" ry="33.0754" transform="rotate(20.3298 52.9933 61.52)" fill="url(#paint2_linear_36_1810)"/>
<path d="M80.5522 110.642C82.739 109.95 94.7003 92.0726 100.232 91.4788C105.765 90.885 107.864 92.9074 112.1 93.4064C116.684 93.9457 121.597 89.1498 123.253 83.0019C124.889 76.9397 122.605 70.7419 119.312 69.3231C115.833 67.8248 112.885 66.8344 114.925 68.0485C116.965 69.2626 122.481 73.6487 118.445 84.4338C116.301 90.1665 115.128 90.7891 116.731 85.6228C118.153 81.0456 117.777 77.5718 117.223 75.2406C116.516 72.2779 114.331 67.6931 105.714 64.2312C98.0083 61.1394 96.393 59.955 94.8089 60.7696C93.8342 61.2699 96.024 61.017 98.0984 62.2624C99.6826 63.2118 101.142 65.1743 101.465 68.1846C102.331 76.23 97.2254 86.8995 91.0474 86.6649C84.3327 86.4095 95.2178 87.2761 98.3208 76.9841C101.216 67.3756 98.4615 62.4351 92.3281 60.973C88.8012 60.1333 77.9967 55.5743 73.4505 48.2005C68.9044 40.8267 72.2177 44.4916 71.2068 53.4213C71.0305 54.9778 71.0387 56.3248 70.1862 57.1618C68.2356 59.0789 58.7233 54.8365 52.508 54.1863C49.7487 53.8989 46.8993 54.975 45.118 59.9983C43.3897 64.8721 43.6202 68.6675 46.7432 69.8201C49.1127 70.6923 51.6834 66.8532 52.3582 65.4149C53.3856 63.2154 54.4363 59.6349 53.2168 56.7905C52.0779 54.1307 47.6508 56.2818 46.3292 60.0258C45.7023 61.797 44.5413 65.1375 45.3655 67.4195C47.1682 72.4161 56.5922 73.6272 56.9905 75.0023C57.4048 76.4253 55.6428 80.2762 53.1503 83.8309C50.5064 87.6064 43.2849 96.0213 35.3924 92.6453C27.3787 89.2216 28.0937 69.5729 32.8583 56.3678C37.577 43.2738 46.3059 25.6036 56.8464 26.9739C64.1472 27.922 66.0028 39.561 65.6475 49.4804C65.3166 58.7617 62.6228 64.3815 60.7808 69.7024C60.04 71.8409 58.8341 73.8974 60.9387 74.7947C63.0384 75.691 63.6112 74.2087 65.4323 69.6413C69.4304 59.6215 71.7714 46.4212 67.6668 32.0092C62.4534 13.7073 41.3598 24.4037 32.4163 48.8355C23.4737 73.2625 24.0896 93.2351 34.5396 96.7461C46.3165 100.71 53.8377 88.3945 55.6518 87.902C57.4669 87.4046 68.9506 82.613 78.5309 84.4065C88.1111 86.1999 89.1787 88.5723 87.9642 89.6854C86.7497 90.7985 71.4434 97.1318 69.5499 100.963C68.519 103.047 70.6484 107.288 73.7189 109.363" stroke="#4A4A4A" stroke-width="1.5" stroke-miterlimit="10" stroke-linecap="round" stroke-linejoin="round"/>
</g>
<defs>
<linearGradient id="paint0_linear_36_1810" x1="74.2064" y1="43.3189" x2="74.2064" y2="93.548" gradientUnits="userSpaceOnUse">
<stop stop-color="#FFF5E0"/>
<stop offset="1" stop-color="#FFDB92"/>
</linearGradient>
<linearGradient id="paint1_linear_36_1810" x1="63.2893" y1="35.8871" x2="63.2893" y2="94.7593" gradientUnits="userSpaceOnUse">
<stop stop-color="#FFE7B7"/>
<stop offset="1" stop-color="#FFBA33"/>
</linearGradient>
<linearGradient id="paint2_linear_36_1810" x1="52.9933" y1="28.4446" x2="52.9933" y2="94.5954" gradientUnits="userSpaceOnUse">
<stop stop-color="#F7AD1E"/>
<stop offset="1" stop-color="#F98D00"/>
</linearGradient>
</defs>
</svg>
