<svg width="154" height="154" viewBox="0 0 154 154" fill="none" xmlns="http://www.w3.org/2000/svg">
<mask id="mask0_36_1764" style="mask-type:alpha" maskUnits="userSpaceOnUse" x="0" y="0" width="154" height="154">
<rect width="154" height="154" rx="77" fill="#D9D9D9"/>
</mask>
<g mask="url(#mask0_36_1764)">
<path d="M55.1368 30.5109L28.6785 76.3463C26.7504 79.6941 29.1605 83.8745 33.0254 83.8745H85.9509C89.8158 83.8745 92.2346 79.6941 90.2978 76.3463L63.8394 30.5109C61.9026 27.163 57.0737 27.163 55.1368 30.5109Z" fill="url(#paint0_linear_36_1764)"/>
<path d="M49.8928 38.8283L23.4344 84.6637C21.5064 88.0115 23.9165 92.1919 27.7814 92.1919H80.7068C84.5717 92.1919 86.9906 88.0115 85.0538 84.6637L58.5954 38.8283C56.6586 35.4804 51.8296 35.4804 49.8928 38.8283Z" fill="url(#paint1_linear_36_1764)"/>
<path d="M54.6387 78.3884C54.885 76.5072 53.5596 74.7825 51.6784 74.5362C49.7971 74.2899 48.0725 75.6153 47.8262 77.4966C47.5799 79.3778 48.9053 81.1025 50.7865 81.3488C52.6677 81.595 54.3924 80.2696 54.6387 78.3884Z" fill="#4A4A4A"/>
<path d="M51.2398 72.3463C49.4256 72.3463 47.962 70.8827 47.962 69.0686V51.2953C47.962 49.4812 49.4256 48.0176 51.2398 48.0176C53.0539 48.0176 54.5175 49.4812 54.5175 51.2953V69.0686C54.5175 70.8827 53.0539 72.3463 51.2398 72.3463Z" fill="#4A4A4A"/>
<path d="M256.009 133.913C255.606 133.913 255.212 133.694 255.019 133.3C243.845 111.153 221.392 99.3393 186.371 97.1746C155.89 95.2904 121.08 100.943 90.3708 105.93C52.8611 112.021 23.2302 116.832 14.1683 106.158C10.8818 102.284 10.505 96.7715 13.0202 89.2959C13.213 88.7174 13.844 88.4019 14.4312 88.5947C15.0097 88.7875 15.3252 89.4185 15.1323 90.0057C12.8888 96.6839 13.1254 101.495 15.8685 104.729C24.1242 114.448 54.6665 109.488 90.029 103.748C120.852 98.7434 155.785 93.0643 186.52 94.9661C222.4 97.1834 245.458 109.4 257.017 132.309C257.298 132.861 257.07 133.527 256.526 133.799C256.342 133.878 256.176 133.913 256.009 133.913Z" fill="#4A4A4A"/>
<path d="M76.5851 87.0962H23.6684C4.32636 87.0962 -1.43156 76.8774 -7.00543 66.9917C-13.1314 56.1244 -18.9244 45.8531 -41.8421 46.9223C-42.4731 46.9486 -42.9727 46.4753 -42.999 45.8618C-43.0252 45.2484 -42.552 44.7313 -41.9385 44.705C-17.6536 43.5832 -11.2559 54.9325 -5.05983 65.905C0.443928 75.6593 5.64095 84.8789 23.6772 84.8789H76.6026C78.0136 84.8789 79.2844 84.1515 79.9855 82.9246C80.6866 81.6976 80.6954 80.2428 79.9855 79.0158L53.5271 33.1804C52.8173 31.9535 51.5553 31.226 50.1443 31.226C48.7333 31.226 47.4625 31.9535 46.7614 33.1804C46.665 33.3382 37.6206 48.6137 20.303 79.0071C20.154 79.27 19.9087 79.7695 19.6633 80.2428C19.4529 80.6722 19.2426 81.0754 19.1199 81.3032C18.8219 81.8378 18.1471 82.0394 17.6125 81.7414C17.0779 81.4434 16.8763 80.7686 17.1743 80.234C17.2882 80.0237 17.481 79.6381 17.6826 79.2437C17.9368 78.7266 18.2085 78.192 18.375 77.9028C35.7013 47.4919 44.7544 32.2076 44.8421 32.0499C45.9463 30.1393 47.927 29 50.1443 29C52.3615 29 54.3422 30.1481 55.4552 32.0674L81.9136 77.9028C83.0178 79.8221 83.0178 82.1183 81.9136 84.0376C80.7918 85.9481 78.8024 87.0962 76.5851 87.0962Z" fill="#4A4A4A"/>
</g>
<defs>
<linearGradient id="paint0_linear_36_1764" x1="40.3127" y1="53.7221" x2="82.456" y2="70.9636" gradientUnits="userSpaceOnUse">
<stop stop-color="#A02D4C"/>
<stop offset="1" stop-color="#D87091"/>
</linearGradient>
<linearGradient id="paint1_linear_36_1764" x1="35.0687" y1="62.0395" x2="77.212" y2="79.281" gradientUnits="userSpaceOnUse">
<stop stop-color="#FF6262"/>
<stop offset="1" stop-color="#FFB0B5"/>
</linearGradient>
</defs>
</svg>
