<svg width="154" height="154" viewBox="0 0 154 154" fill="none" xmlns="http://www.w3.org/2000/svg">
<mask id="mask0_36_1785" style="mask-type:alpha" maskUnits="userSpaceOnUse" x="0" y="0" width="154" height="154">
<rect width="154" height="154" rx="77" fill="#D9D9D9"/>
</mask>
<g mask="url(#mask0_36_1785)">
<path d="M53.0494 62.0923C49.2778 54.9407 30.5986 54.5602 30.3971 68.8187C30.1845 84.0955 54.8961 95.265 56.3622 95.4665C56.3958 95.4665 56.3958 95.4665 56.4294 95.4553L53.0494 62.0923Z" fill="url(#paint0_linear_36_1785)"/>
<path d="M76.6195 64.2186C73.5865 50.2848 55.3214 54.3362 53.0494 62.0922L56.3622 95.4663C56.3958 95.4663 56.3958 95.4663 56.4293 95.4551C57.8283 94.9627 79.8651 79.1486 76.6195 64.2186Z" fill="url(#paint1_linear_36_1785)"/>
<path d="M53.0494 62.0923C49.2778 54.9407 30.5986 54.5602 30.3971 68.8187C30.1845 84.0955 54.8961 95.265 56.3622 95.4665C56.3958 95.4665 56.3958 95.4665 56.4294 95.4553L53.0494 62.0923Z" fill="url(#paint2_linear_36_1785)"/>
<path d="M76.6195 64.2186C73.5865 50.2848 55.3214 54.3362 53.0494 62.0922L56.3622 95.4663C56.3958 95.4663 56.3958 95.4663 56.4293 95.4551C57.8283 94.9627 79.8651 79.1486 76.6195 64.2186Z" fill="url(#paint3_linear_36_1785)"/>
<path d="M53.0494 62.0923C49.2778 54.9407 30.5986 54.5602 30.3971 68.8187C30.1845 84.0955 54.8961 95.265 56.3622 95.4665C56.3958 95.4665 56.3958 95.4665 56.4294 95.4553L53.0494 62.0923Z" fill="url(#paint4_linear_36_1785)"/>
<path d="M76.6195 64.2186C73.5865 50.2848 55.3214 54.3362 53.0494 62.0922L56.3622 95.4663C56.3958 95.4663 56.3958 95.4663 56.4293 95.4551C57.8283 94.9627 79.8651 79.1486 76.6195 64.2186Z" fill="url(#paint5_linear_36_1785)"/>
<path d="M52.9599 61.2194C50.1843 56.1159 37.6942 55.1981 37.1794 68.2479C36.5862 83.5136 54.8961 95.265 56.3622 95.4777C56.3846 95.4888 56.3958 95.4777 56.4294 95.4665L52.9599 61.2194Z" fill="url(#paint6_linear_36_1785)"/>
<path d="M69.8484 64.9686C66.7595 52.277 54.6946 55.657 52.9935 61.2081L56.3958 95.4664C56.4182 95.4776 56.4294 95.4664 56.4629 95.4552C57.8507 94.9628 73.4634 79.8202 69.8484 64.9686Z" fill="url(#paint7_linear_36_1785)"/>
<path d="M158.79 128.919C146.96 127.923 135.086 127.844 123.502 124.957C113.687 122.506 104.823 118.197 97.1789 111.829C98.8801 111.683 100.57 111.493 102.26 111.224C114.84 109.277 129.188 103.737 133.843 90.7322C137.783 79.7194 131.09 67.5762 119.171 66.1101C114.526 65.5393 109.535 66.9831 106.625 70.6876C103.995 62.663 94.4593 60.0105 87.2405 63.48C86.7817 59.7979 85.4498 56.2613 82.9764 53.4073C79.2048 49.0649 73.3403 46.8489 67.6548 47.5764C64.4651 47.9793 61.4545 49.188 58.623 50.6429C56.4741 51.7397 55.0304 53.1835 52.6129 51.9412C51.0237 51.1242 49.4904 50.2848 47.8004 49.6804C42.3948 47.7442 36.3959 48.3038 31.4939 51.348C21.1414 57.7722 20.7609 71.8851 26.2337 81.6444C32.7809 93.2951 46.0097 100.872 58.041 105.696C58.041 105.696 58.041 105.696 58.0522 105.696C51.337 109.624 44.0288 112.579 36.5638 114.672C23.7155 118.253 10.2741 120.357 -3.06657 120.491C-16.6199 120.626 -30.039 118.555 -43.167 115.298C-56.3286 112.03 -68.9754 106.938 -82.2042 103.95C-94.0676 101.264 -106.043 100.872 -117.817 104.196C-128.55 107.229 -138.466 112.523 -148.259 117.738C-158.454 123.166 -168.751 128.74 -179.943 131.818C-186.468 133.608 -193.138 134.336 -199.898 134.235C-207.105 134.123 -214.615 133.608 -221.688 132.164C-227.385 131.001 -233.485 128.348 -236.372 123.11C-235.163 123.077 -233.955 122.987 -232.757 122.808C-228.359 122.159 -221.957 120.323 -222.259 114.75C-222.483 110.542 -226.4 106.737 -230.675 107.173C-235.275 107.643 -238.633 112.03 -239.148 116.418C-239.372 118.298 -239.069 120.122 -238.42 121.823C-243.356 121.678 -248.28 120.525 -253.048 119.406C-264.419 116.72 -275.32 115.209 -286.948 117.302C-296.819 119.081 -306.332 122.976 -314.603 128.661V130.284C-308.638 126.054 -301.99 122.786 -294.961 120.603C-288.537 118.611 -281.845 117.537 -275.118 117.492C-268.023 117.436 -261.207 118.813 -254.335 120.447C-248.952 121.722 -243.401 123.065 -237.838 123.133C-236.383 125.987 -233.921 128.415 -231.246 130.06C-225.438 133.631 -218.241 134.157 -211.627 134.806C-203.535 135.612 -195.354 135.992 -187.285 134.739C-181.062 133.776 -175.03 131.873 -169.221 129.49C-144.845 119.495 -122.987 101.029 -95.1868 103.211C-79.5741 104.431 -64.924 110.564 -50.0276 114.828C-35.6461 118.936 -20.7161 121.655 -5.73024 121.801C8.83037 121.946 23.6148 119.741 37.6046 115.735C45.2711 113.53 52.7584 110.43 59.619 106.3C70.8668 110.575 83.0548 112.679 95.086 111.974C98.7906 115.164 102.808 117.94 106.905 120.133C118.488 126.345 131.773 128.471 144.744 129.299C158.309 130.161 172.008 130.81 184.867 135.265V133.888C176.473 131.023 167.676 129.669 158.79 128.919ZM-237.335 120.939C-238.331 117.962 -237.961 114.783 -236.204 112.165C-234.324 109.355 -230.675 107.408 -227.407 109.053C-225.147 110.195 -223.479 112.78 -223.546 115.321C-223.669 119.361 -228.538 120.682 -231.75 121.308C-233.485 121.644 -235.242 121.801 -236.988 121.823C-237.111 121.543 -237.234 121.252 -237.335 120.939ZM59.4511 104.879C49.0987 100.962 38.8805 95.097 31.6394 86.927C23.7603 78.0406 19.8543 62.3384 30.4306 53.7207C35.9706 49.1992 43.3684 48.8858 49.6806 51.8852C51.449 52.7246 53.262 54.3474 55.3325 53.8326C56.4293 53.5528 57.4702 52.747 58.4551 52.221C60.3129 51.2249 62.2379 50.3296 64.2525 49.6916C71.0571 47.5428 78.6676 49.4678 82.9093 55.4442C84.756 58.0408 85.7185 61.0514 86.0206 64.1739C85.6513 64.3977 85.282 64.6328 84.935 64.8902C77.5596 70.307 76.1382 79.462 78.2423 87.744C74.7728 92.6572 70.464 96.9884 65.7074 100.626C63.6929 102.148 61.6 103.558 59.4511 104.879ZM86.1102 65.64C86.1997 68.438 85.7856 71.2583 85.0134 73.8996C83.7151 78.3652 81.6894 82.5509 79.1376 86.4009C78.3206 82.9091 78.2423 79.2717 79.2272 75.5448C80.2792 71.5941 82.7526 67.9567 86.1102 65.64ZM65.3157 106.893C63.8831 106.446 62.4394 105.964 60.9956 105.449C63.7153 103.737 66.323 101.857 68.7964 99.7976C72.3777 96.8206 75.7801 93.2951 78.7011 89.3892C79.2607 91.1687 79.977 92.881 80.8276 94.5038C83.9613 100.447 88.4828 106.02 93.6982 110.754C84.118 111.146 74.4483 109.725 65.3157 106.893ZM92.635 107.643C87.3189 102.249 81.8796 95.5671 79.6189 88.1469C83.4353 82.73 86.2445 76.6192 87.1622 70.1951C87.4084 68.438 87.4868 66.6473 87.3748 64.8566C88.8634 64.0284 90.4974 63.4576 92.2321 63.2226C98.2869 62.3944 104.442 66.3451 105.752 72.3887C105.875 72.9483 106.67 73.0155 106.949 72.5454C110.475 66.5466 118.757 66.1996 124.442 69.0535C129.937 71.8067 133.676 77.2124 133.81 83.4127C134.078 97.8166 119.865 105.875 107.654 108.829C103.749 109.781 99.7866 110.363 95.7911 110.631C94.7167 109.68 93.6535 108.684 92.635 107.643Z" fill="#4A4A4A"/>
<path d="M102.047 76.4963C101.6 69.8148 87.5763 63.2451 82.6295 73.9781C77.3358 85.4722 92.2993 102.238 93.3401 102.887C93.3625 102.898 93.3625 102.898 93.3849 102.898L102.047 76.4963Z" fill="url(#paint8_linear_36_1785)"/>
<path d="M119.171 86.0205C121.566 74.4481 106.367 71.3816 102.036 76.4963L93.3401 102.887C93.3625 102.898 93.3625 102.898 93.3849 102.898C94.6048 102.999 116.619 98.4211 119.171 86.0205Z" fill="url(#paint9_linear_36_1785)"/>
<path d="M102.271 75.8027C101.891 71.0126 92.7357 66.1105 87.9568 75.8251C82.3721 87.1848 92.2881 102.238 93.3289 102.887C93.3513 102.898 93.3513 102.898 93.3737 102.898L102.271 75.8027Z" fill="url(#paint10_linear_36_1785)"/>
<path d="M113.799 84.3195C115.724 73.6648 105.45 72.1763 102.294 75.8025L93.3625 102.887C93.3849 102.898 93.3849 102.898 93.4073 102.898C94.6272 102.999 111.538 96.776 113.799 84.3195Z" fill="url(#paint11_linear_36_1785)"/>
</g>
<defs>
<linearGradient id="paint0_linear_36_1785" x1="31.2475" y1="78.1612" x2="54.4607" y2="75.8305" gradientUnits="userSpaceOnUse">
<stop stop-color="#97D2E4"/>
<stop offset="1" stop-color="#557B8A"/>
</linearGradient>
<linearGradient id="paint1_linear_36_1785" x1="54.3988" y1="75.8454" x2="77.6458" y2="73.5114" gradientUnits="userSpaceOnUse">
<stop stop-color="#497282"/>
<stop offset="1" stop-color="#69BED8"/>
</linearGradient>
<linearGradient id="paint2_linear_36_1785" x1="31.2475" y1="78.1612" x2="54.4607" y2="75.8305" gradientUnits="userSpaceOnUse">
<stop stop-color="#97D2E4"/>
<stop offset="1" stop-color="#557B8A"/>
</linearGradient>
<linearGradient id="paint3_linear_36_1785" x1="54.3988" y1="75.8454" x2="77.6458" y2="73.5114" gradientUnits="userSpaceOnUse">
<stop stop-color="#497282"/>
<stop offset="1" stop-color="#69BED8"/>
</linearGradient>
<linearGradient id="paint4_linear_36_1785" x1="31.2475" y1="78.1612" x2="54.4607" y2="75.8305" gradientUnits="userSpaceOnUse">
<stop stop-color="#97D2E4"/>
<stop offset="1" stop-color="#557B8A"/>
</linearGradient>
<linearGradient id="paint5_linear_36_1785" x1="54.3988" y1="75.8454" x2="77.6458" y2="73.5114" gradientUnits="userSpaceOnUse">
<stop stop-color="#497282"/>
<stop offset="1" stop-color="#69BED8"/>
</linearGradient>
<linearGradient id="paint6_linear_36_1785" x1="37.976" y1="77.9095" x2="54.5021" y2="76.2502" gradientUnits="userSpaceOnUse">
<stop stop-color="#C0E7F8"/>
<stop offset="1" stop-color="#9CD3E8"/>
</linearGradient>
<linearGradient id="paint7_linear_36_1785" x1="54.4644" y1="76.2544" x2="70.9956" y2="74.5947" gradientUnits="userSpaceOnUse">
<stop stop-color="#84BAC8"/>
<stop offset="1" stop-color="#95D0E0"/>
</linearGradient>
<linearGradient id="paint8_linear_36_1785" x1="85.5165" y1="84.2243" x2="100.855" y2="87.5303" gradientUnits="userSpaceOnUse">
<stop stop-color="#FF6262"/>
<stop offset="1" stop-color="#FFB0B5"/>
</linearGradient>
<linearGradient id="paint9_linear_36_1785" x1="98.4398" y1="87.3622" x2="116.828" y2="93.409" gradientUnits="userSpaceOnUse">
<stop stop-color="#A02D4C"/>
<stop offset="1" stop-color="#D87091"/>
</linearGradient>
<linearGradient id="paint10_linear_36_1785" x1="85.3095" y1="83.405" x2="98.382" y2="87.7038" gradientUnits="userSpaceOnUse">
<stop stop-color="#FBC9D2"/>
<stop offset="1" stop-color="#FAB3BB"/>
</linearGradient>
<linearGradient id="paint11_linear_36_1785" x1="97.4044" y1="87.3173" x2="112.533" y2="91.249" gradientUnits="userSpaceOnUse">
<stop stop-color="#FF6262"/>
<stop offset="1" stop-color="#FFB0B5"/>
</linearGradient>
</defs>
</svg>
