<svg width="900" height="264" viewBox="0 0 900 264" fill="none" xmlns="http://www.w3.org/2000/svg">
<path d="M795.692 43.5784C825.55 31.2575 855.427 18.9366 871.544 13.2013C887.66 7.46597 890.036 8.29822 880.534 14.2325C871.032 20.1668 849.671 31.1851 834.796 39.58C819.94 47.993 811.571 53.7826 807.222 57.0392C802.873 60.2958 802.526 61.0195 804.116 61.9603C805.687 62.9011 809.177 64.0771 812.065 65.5788C814.933 67.0805 817.181 68.944 818.35 70.319C819.52 71.6941 819.611 72.5987 819.648 73.0691C819.684 73.5395 819.684 73.6119 817.309 75.3487C814.933 77.1037 810.182 80.5412 807.606 82.4229C805.029 84.2864 804.646 84.5759 804.426 83.1827C804.207 81.7896 804.171 78.732 804.335 74.9869C804.499 71.2417 804.865 66.791 805.596 64.3304C806.327 61.8518 807.441 61.3452 809.853 61.7251C812.266 62.1051 816.012 63.3715 819.794 65.7959C823.577 68.2384 827.396 71.8569 831.178 76.38C834.961 80.9212 838.688 86.3851 840.735 89.5694C842.782 92.7717 843.111 93.6944 844.901 90.872C846.692 88.0496 849.908 81.5001 853.983 74.1365C858.058 66.7729 862.973 58.6313 870.703 46.8532C878.433 35.0931 888.958 19.6964 894.257 11.3377C899.556 2.97905 899.648 1.62212 898.204 1.16981C896.761 0.699405 893.782 1.13362 885.212 3.39518C876.642 5.65673 862.462 9.7818 844.81 14.4858C827.158 19.1899 806.016 24.4909 792.001 28.1094C777.985 31.7279 771.114 33.6638 769.543 34.677C767.971 35.7082 771.717 35.8168 776.048 37.3727C780.379 38.9287 785.294 41.932 787.871 43.6689C790.447 45.4239 790.703 45.9305 791.343 46.6361C791.982 47.3417 793.006 48.2825 794.394 53.3122C795.801 58.3599 797.574 67.5147 798.762 72.5625C799.949 77.6103 800.552 78.533 800.041 79.2748C799.529 80.0166 797.921 80.5593 789.187 92.5003C780.452 104.459 764.627 127.799 750.85 129.499C737.09 131.182 725.395 111.208 706.683 117.866C687.972 124.524 662.243 157.814 645.87 161.867" stroke="#FFBA33" stroke-width="2" stroke-miterlimit="2.6131" stroke-linecap="round"/>
<path d="M1 262.247C9.69621 234.22 37.7995 198.926 71.8447 181.049C105.864 163.172 195.747 155.919 228.147 162.254C260.547 168.588 273.593 198.645 321.747 196.426C348.23 195.206 387.747 186.588 417.747 168.588C447.747 150.588 485.355 201.348 536.547 197.849C575.119 195.212 610.947 181.049 645.747 162.254" stroke="#FFBA33" stroke-width="2" stroke-miterlimit="2.6131" stroke-linecap="round" stroke-linejoin="round"/>
</svg>
