<svg width="1683" height="260" viewBox="0 0 1683 260" fill="none" xmlns="http://www.w3.org/2000/svg">
<path d="M1682.99 98.3034C1664.9 98.0261 1629.92 89.1099 1612.69 83.6295C1563.17 67.8882 1590.74 -3.55948 1539 1.17654C1518.06 3.09274 1512.13 30.4888 1514.17 52.749C1520.34 120.228 1471 140.767 1405.31 139.595C1339.63 138.422 1307.23 116.387 1319.33 95.7721C1325.37 85.478 1342.54 83.5044 1350.01 102.559C1362.48 134.395 1323.57 171.943 1289.44 172.322C1255.32 172.702 1238.89 165.333 1225.49 156.055C1212.08 146.721 1191.16 136.227 1170.67 133.563C1150.19 130.9 1130.15 136.067 1117.68 145.434C1105.21 154.801 1100.31 168.37 1107.56 177.554C1114.8 186.738 1134.18 191.538 1137.02 178.774C1139.87 166.01 1126.15 135.661 1110.19 109.714C1094.26 83.7599 1076.07 62.2442 1055.71 53.2773C1035.35 44.3104 1012.82 47.957 996.597 55.4739C980.378 62.9907 970.488 74.4064 968.424 83.96C966.361 93.5136 972.133 101.234 978.371 103.108C984.609 104.983 991.285 101.02 990.274 94.8129C989.263 88.6061 980.565 80.1557 967.268 79.4748C953.971 78.7938 936.052 85.9185 923.003 96.7593C909.954 107.6 901.737 122.136 896.589 130.484C891.47 138.823 889.411 140.944 886.254 142.632C883.089 144.291 878.806 145.553 873.999 146.131C869.193 146.709 863.836 146.612 858.723 143.575C853.609 140.537 848.795 134.543 845.941 131.928C843.086 129.313 842.212 130.041 841.638 133.684C841.065 137.326 840.763 143.891 838.368 148.949C835.965 153.978 831.411 157.515 825.969 160.04C820.52 162.537 814.183 164.023 806.872 162.258C799.561 160.493 791.267 155.449 785.788 149.147C780.281 142.853 777.587 135.302 777.504 125.631C777.422 115.96 779.986 104.19 783.318 93.8922C786.65 83.5947 790.749 74.7695 796.846 66.1939C802.943 57.6183 811.074 49.3129 816.373 45.3586C821.672 41.4043 824.146 41.8295 826.843 42.2856C829.541 42.7418 832.469 43.2572 841.972 48.5825C851.475 53.9077 867.553 64.0428 877.791 72.0727C888.028 80.1025 892.453 86.0193 895.42 91.4169C898.386 96.8145 899.972 101.641 900.421 106.228C900.869 110.814 900.245 115.174 897.782 120.434C895.319 125.693 890.996 131.888 887.281 135.808C883.566 139.727 880.495 141.391 877.933 141.999C875.407 142.627 873.392 142.199 872.276 141.587C871.16 140.974 870.951 140.205 874.298 136.509C877.645 132.812 884.568 126.152 888.859 120.179C893.151 114.206 894.839 108.914 895.344 105.81C895.878 102.698 895.208 101.81 893.974 101.78C892.741 101.75 890.907 102.557 885.382 108.836C879.856 115.115 870.631 126.838 865.254 132.312C859.885 137.814 858.365 137.067 857.371 136.115C856.349 135.171 855.874 133.986 859.106 129.526C862.337 125.066 869.311 117.352 874.92 111.264C880.528 105.176 884.835 100.729 886.372 97.5873C887.917 94.4746 886.691 92.6687 885.981 90.8443C885.3 89.012 885.106 87.1691 884.488 86.3593C883.841 85.5573 882.763 85.7601 872.745 95.8039C862.719 105.819 843.789 125.696 832.088 138.004C820.33 150.327 815.799 155.08 812.825 157.33C809.88 159.571 808.483 159.28 807.466 158.579C806.449 157.878 805.803 156.74 805.67 155.461C805.537 154.182 805.889 152.771 817.424 140.754C828.959 128.736 851.677 106.112 863.37 94.4495C875.062 82.7865 875.722 82.056 876.138 80.9943C876.547 79.9042 876.684 78.4907 876.173 76.9483C875.663 75.4059 874.525 73.6982 873.666 72.679C872.828 71.6235 872.269 71.2563 866.854 76.2513C861.44 81.2464 851.19 91.5673 838.463 104.95C825.7 118.312 810.488 134.728 802.282 142.87C794.076 151.012 792.92 150.93 792.201 150.424C791.489 149.945 791.234 149.006 791.602 147.315C791.97 145.624 792.946 143.126 798.758 136.096C804.57 129.066 815.231 117.44 827.188 105.735C839.145 94.0305 852.362 82.2266 858.712 75.6001C865.07 69.0019 864.533 67.589 863.125 66.6892C861.716 65.7895 859.501 65.4158 856.879 66.2539C854.286 67.0843 851.287 69.1264 839.367 81.6464C827.419 94.1742 806.559 117.208 795.767 128.35C784.975 139.492 784.294 138.791 783.998 137.588C783.71 136.413 783.834 134.727 785.111 131.871C786.389 129.015 788.819 124.988 793.298 119.82C797.749 114.66 804.285 108.38 814.394 98.5564C824.538 88.7532 838.255 75.4061 844.853 68.2228C851.45 61.0395 850.936 60.0484 850.093 59.0861C849.249 58.1238 848.113 57.2108 846.001 57.3289C843.917 57.4393 840.836 58.6169 829.917 69.5182C818.998 80.4195 800.184 101.06 790.727 110.461C781.269 119.863 781.189 117.989 781.979 115.48C782.768 112.971 784.456 109.819 793.507 99.8253C802.566 89.8599 818.961 73.0601 827.098 63.9885C835.236 54.9169 835.116 53.5734 834.597 52.6756C834.077 51.7777 833.145 51.3901 832.147 51.3262C831.149 51.2622 830.065 51.5582 827.719 53.6361C825.373 55.7139 821.735 59.5815 814.299 67.5136C806.871 75.4742 795.665 87.4629 789.872 92.5307C784.079 97.5985 783.719 95.7091 785.702 92.2932C787.686 88.8772 792.04 83.927 799.359 76.241C806.678 68.5549 816.961 58.133 821.943 52.6749C826.926 47.2169 826.616 46.7511 825.296 45.6132C823.947 44.483 821.589 42.6805 813.953 38.2521C806.317 33.8236 793.445 26.6967 770.561 25.5752C747.678 24.4538 714.824 29.2653 695.544 45.1406C676.292 61.0081 670.605 87.9109 672.953 102.651C675.3 117.392 685.718 119.99 694.552 119.016C703.386 118.041 710.71 113.533 710.529 105.755C710.376 97.9683 702.709 86.8819 692.245 82.9811C681.78 79.0803 668.502 82.3082 655.42 91.1092C642.338 99.9102 629.444 114.256 627.617 131.114C625.783 147.944 635.017 167.287 638.435 182.133C641.845 196.95 639.417 207.307 636.132 213.035C632.854 218.792 628.69 219.929 622.167 219.937C615.643 219.944 606.739 218.859 604.83 213.631C602.921 208.404 608.042 199.055 615.113 201.405C622.185 203.755 631.208 217.805 630.576 231.279C629.945 244.753 619.661 257.652 603.343 259.05C587.026 260.447 564.675 250.343 548.318 244.259C531.96 238.176 521.597 236.113 513.352 237.905C505.107 239.698 498.981 245.346 492.855 250.993C486.729 256.641 463.387 254.871 446.562 248.123C412.921 234.63 436.562 173.321 400.885 167.042C366.724 161.03 364.101 212.188 330.74 221.662C314.381 226.307 305.997 229.132 287.382 225.63C268.767 222.128 233.859 194.364 225.159 176.191C219.37 164.097 220.805 144.002 233.365 142.853C248.778 141.442 257.08 162.916 247.933 179.003C218.842 230.165 154.45 233.737 105.988 227.178C57.5256 220.619 22.8021 194.714 0.431422 165.556" stroke="#FFBA33" stroke-miterlimit="2.6131"/>
</svg>
