<svg width="178" height="35" viewBox="0 0 178 35" fill="none" xmlns="http://www.w3.org/2000/svg">
<path d="M56.6235 11.2403V16.6974H63.5095V19.5145H56.6235V25.0805H65.3603V28.0063H52.9491V8.32804H65.3603V11.2403H56.6235Z" fill="white"/>
<path d="M80.1835 14.0437L74.6447 28.0063H71.5963L66.0576 14.0437H68.8338C69.0878 14.0437 69.2965 14.1027 69.4598 14.2206C69.6321 14.3386 69.7455 14.4883 69.8 14.6697L72.4945 22.1273C72.6397 22.5628 72.7667 22.9892 72.8756 23.4066C72.9844 23.8239 73.0797 24.2412 73.1614 24.6586C73.2521 24.2412 73.3519 23.8239 73.4607 23.4066C73.5696 22.9892 73.7012 22.5628 73.8554 22.1273L76.6044 14.6697C76.6679 14.4883 76.7813 14.3386 76.9446 14.2206C77.1079 14.1027 77.303 14.0437 77.5298 14.0437H80.1835Z" fill="white"/>
<path d="M90.5451 19.4192C90.5451 18.9837 90.4816 18.5755 90.3546 18.1944C90.2366 17.8043 90.0552 17.4641 89.8102 17.1737C89.5653 16.8834 89.2522 16.6566 88.8712 16.4933C88.4992 16.3209 88.0637 16.2347 87.5648 16.2347C86.594 16.2347 85.8274 16.5115 85.2649 17.0649C84.7115 17.6183 84.3576 18.4031 84.2034 19.4192H90.5451ZM84.1353 21.4469C84.1898 22.1636 84.3168 22.7851 84.5164 23.3113C84.716 23.8284 84.9791 24.2594 85.3057 24.6041C85.6323 24.9398 86.0179 25.1939 86.4624 25.3662C86.9161 25.5295 87.4151 25.6112 87.9594 25.6112C88.5038 25.6112 88.971 25.5477 89.3611 25.4207C89.7603 25.2937 90.1051 25.153 90.3954 24.9988C90.6948 24.8446 90.9533 24.7039 91.1711 24.5769C91.3979 24.4499 91.6156 24.3864 91.8243 24.3864C92.1056 24.3864 92.3142 24.4907 92.4503 24.6994L93.4165 25.9242C93.0446 26.3597 92.6272 26.7271 92.1645 27.0265C91.7018 27.3168 91.2164 27.5527 90.7084 27.7342C90.2094 27.9065 89.6968 28.029 89.1706 28.1016C88.6535 28.1742 88.1499 28.2105 87.66 28.2105C86.6893 28.2105 85.7865 28.0517 84.9519 27.7342C84.1172 27.4076 83.3914 26.9312 82.7745 26.3052C82.1575 25.6702 81.6722 24.8899 81.3183 23.9645C80.9645 23.0301 80.7876 21.9504 80.7876 20.7256C80.7876 19.773 80.9418 18.8794 81.2503 18.0447C81.5587 17.201 81.9988 16.4706 82.5703 15.8537C83.151 15.2277 83.8541 14.7332 84.6797 14.3703C85.5144 14.0074 86.4534 13.826 87.4967 13.826C88.3767 13.826 89.1887 13.9666 89.9327 14.2479C90.6766 14.5291 91.3162 14.9419 91.8515 15.4863C92.3868 16.0215 92.8041 16.6838 93.1035 17.4731C93.412 18.2534 93.5662 19.147 93.5662 20.1541C93.5662 20.6621 93.5118 21.0069 93.4029 21.1883C93.2941 21.3607 93.0854 21.4469 92.7769 21.4469H84.1353Z" fill="white"/>
<path d="M99.2596 16.4661C99.6951 15.6314 100.212 14.9782 100.811 14.5064C101.41 14.0256 102.117 13.7852 102.934 13.7852C103.578 13.7852 104.095 13.9258 104.485 14.207L104.268 16.7247C104.222 16.888 104.154 17.0059 104.063 17.0785C103.982 17.142 103.868 17.1737 103.723 17.1737C103.587 17.1737 103.383 17.1511 103.111 17.1057C102.848 17.0603 102.589 17.0377 102.335 17.0377C101.963 17.0377 101.632 17.0921 101.342 17.201C101.051 17.3098 100.788 17.4686 100.552 17.6773C100.326 17.8769 100.121 18.1218 99.94 18.4121C99.7677 18.7025 99.6043 19.0336 99.4501 19.4056V28.0063H96.0887V14.0437H98.062C98.4068 14.0437 98.6472 14.1072 98.7833 14.2343C98.9194 14.3522 99.0101 14.5699 99.0555 14.8875L99.2596 16.4661Z" fill="white"/>
<path d="M106.242 28.0063V14.0437H108.297C108.733 14.0437 109.018 14.2479 109.154 14.6561L109.372 15.6904C109.617 15.4182 109.871 15.1687 110.134 14.9419C110.406 14.7151 110.692 14.52 110.992 14.3567C111.3 14.1934 111.627 14.0664 111.971 13.9757C112.325 13.8759 112.711 13.826 113.128 13.826C114.008 13.826 114.73 14.0664 115.292 14.5473C115.864 15.019 116.29 15.6496 116.571 16.4389C116.789 15.9762 117.061 15.5815 117.388 15.2549C117.714 14.9192 118.073 14.6471 118.463 14.4384C118.853 14.2297 119.266 14.0755 119.701 13.9757C120.146 13.8759 120.59 13.826 121.035 13.826C121.806 13.826 122.491 13.9439 123.09 14.1798C123.689 14.4157 124.192 14.7605 124.6 15.2141C125.009 15.6677 125.317 16.2211 125.526 16.8744C125.744 17.5276 125.852 18.2761 125.852 19.1198V28.0063H122.491V19.1198C122.491 18.2307 122.296 17.5639 121.906 17.1193C121.516 16.6657 120.944 16.4389 120.191 16.4389C119.846 16.4389 119.524 16.4978 119.225 16.6158C118.935 16.7337 118.676 16.9061 118.449 17.1329C118.232 17.3507 118.059 17.6274 117.932 17.9631C117.805 18.2987 117.742 18.6843 117.742 19.1198V28.0063H114.367V19.1198C114.367 18.1853 114.176 17.5049 113.795 17.0785C113.423 16.6521 112.874 16.4389 112.148 16.4389C111.658 16.4389 111.2 16.5614 110.774 16.8063C110.357 17.0422 109.966 17.3688 109.604 17.7861V28.0063H106.242Z" fill="white"/>
<path d="M136.423 22.0457C135.453 22.0911 134.636 22.1772 133.974 22.3043C133.312 22.4222 132.781 22.5764 132.382 22.767C131.982 22.9575 131.697 23.1798 131.524 23.4338C131.352 23.6878 131.266 23.9645 131.266 24.2639C131.266 24.8536 131.438 25.2755 131.783 25.5295C132.137 25.7836 132.595 25.9106 133.157 25.9106C133.847 25.9106 134.441 25.7881 134.94 25.5432C135.448 25.2891 135.943 24.9081 136.423 24.4V22.0457ZM128.721 15.9898C130.327 14.52 132.259 13.7852 134.518 13.7852C135.335 13.7852 136.065 13.9213 136.709 14.1934C137.353 14.4565 137.898 14.8285 138.342 15.3093C138.787 15.7811 139.123 16.3482 139.349 17.0104C139.585 17.6727 139.703 18.3985 139.703 19.1879V28.0063H138.179C137.861 28.0063 137.617 27.961 137.444 27.8703C137.272 27.7705 137.136 27.5754 137.036 27.2851L136.736 26.278C136.383 26.5956 136.038 26.8768 135.702 27.1218C135.367 27.3577 135.017 27.5573 134.654 27.7206C134.291 27.8839 133.901 28.0063 133.484 28.088C133.076 28.1787 132.622 28.2241 132.123 28.2241C131.533 28.2241 130.989 28.147 130.49 27.9927C129.991 27.8294 129.56 27.589 129.197 27.2715C128.834 26.9539 128.553 26.5593 128.353 26.0875C128.154 25.6157 128.054 25.0668 128.054 24.4408C128.054 24.087 128.113 23.7377 128.231 23.393C128.349 23.0391 128.539 22.7035 128.803 22.3859C129.075 22.0684 129.424 21.769 129.85 21.4877C130.277 21.2065 130.799 20.9615 131.415 20.7529C132.041 20.5442 132.767 20.3764 133.593 20.2493C134.418 20.1132 135.362 20.0316 136.423 20.0044V19.1879C136.423 18.2534 136.224 17.5639 135.825 17.1193C135.425 16.6657 134.849 16.4389 134.096 16.4389C133.552 16.4389 133.098 16.5024 132.735 16.6294C132.382 16.7564 132.069 16.9016 131.796 17.0649C131.524 17.2191 131.275 17.3597 131.048 17.4868C130.83 17.6138 130.585 17.6773 130.313 17.6773C130.077 17.6773 129.878 17.6183 129.714 17.5004C129.551 17.3733 129.419 17.2282 129.32 17.0649L128.721 15.9898Z" fill="white"/>
<path d="M147.337 28.2241C146.121 28.2241 145.187 27.8839 144.534 27.2034C143.89 26.5139 143.567 25.5658 143.567 24.3592V16.5614H142.139C141.957 16.5614 141.803 16.5024 141.676 16.3844C141.549 16.2665 141.485 16.0896 141.485 15.8537V14.52L143.731 14.1526L144.438 10.3421C144.484 10.1607 144.57 10.0201 144.697 9.92027C144.824 9.82047 144.987 9.77057 145.187 9.77057H146.929V14.1662H150.658V16.5614H146.929V24.1278C146.929 24.5633 147.033 24.9035 147.242 25.1485C147.46 25.3935 147.754 25.5159 148.126 25.5159C148.335 25.5159 148.507 25.4933 148.644 25.4479C148.789 25.3935 148.911 25.339 149.011 25.2846C149.12 25.2302 149.215 25.1803 149.297 25.1349C149.378 25.0805 149.46 25.0532 149.542 25.0532C149.642 25.0532 149.723 25.0805 149.787 25.1349C149.85 25.1803 149.918 25.2528 149.991 25.3526L150.998 26.9857C150.508 27.3939 149.945 27.7024 149.31 27.9111C148.675 28.1197 148.018 28.2241 147.337 28.2241Z" fill="white"/>
<path d="M162.706 16.9968C162.606 17.1239 162.506 17.2236 162.406 17.2962C162.316 17.3688 162.18 17.4051 161.998 17.4051C161.826 17.4051 161.658 17.3552 161.495 17.2554C161.331 17.1465 161.136 17.0286 160.91 16.9016C160.683 16.7655 160.411 16.6475 160.093 16.5477C159.785 16.4389 159.399 16.3844 158.936 16.3844C158.347 16.3844 157.829 16.4933 157.385 16.7111C156.94 16.9197 156.568 17.2236 156.269 17.6228C155.979 18.022 155.761 18.5074 155.616 19.079C155.471 19.6415 155.398 20.2811 155.398 20.9978C155.398 21.7418 155.475 22.4041 155.629 22.9847C155.793 23.5653 156.024 24.0553 156.323 24.4544C156.623 24.8446 156.986 25.144 157.412 25.3526C157.838 25.5522 158.319 25.652 158.855 25.652C159.39 25.652 159.821 25.5885 160.147 25.4615C160.483 25.3254 160.764 25.1803 160.991 25.026C161.218 24.8627 161.413 24.7176 161.576 24.5905C161.749 24.4544 161.939 24.3864 162.148 24.3864C162.42 24.3864 162.624 24.4907 162.76 24.6994L163.727 25.9242C163.355 26.3597 162.951 26.7271 162.515 27.0265C162.08 27.3168 161.626 27.5527 161.154 27.7342C160.692 27.9065 160.211 28.029 159.712 28.1016C159.222 28.1742 158.732 28.2105 158.242 28.2105C157.38 28.2105 156.568 28.0517 155.806 27.7342C155.044 27.4076 154.377 26.9358 153.806 26.3189C153.234 25.7019 152.781 24.9489 152.445 24.0598C152.118 23.1616 151.955 22.141 151.955 20.9978C151.955 19.9726 152.1 19.0245 152.39 18.1536C152.69 17.2735 153.125 16.516 153.697 15.8809C154.268 15.2368 154.976 14.7332 155.82 14.3703C156.664 14.0074 157.634 13.826 158.732 13.826C159.775 13.826 160.687 13.9938 161.467 14.3295C162.257 14.6652 162.964 15.146 163.59 15.772L162.706 16.9968Z" fill="white"/>
<path d="M169.195 15.5407C169.739 15.0326 170.338 14.6198 170.991 14.3023C171.645 13.9848 172.411 13.826 173.291 13.826C174.053 13.826 174.729 13.9575 175.319 14.2206C175.909 14.4747 176.399 14.8376 176.789 15.3093C177.188 15.772 177.487 16.33 177.687 16.9832C177.896 17.6274 178 18.3396 178 19.1198V28.0063H174.639V19.1198C174.639 18.267 174.444 17.6092 174.053 17.1465C173.663 16.6748 173.069 16.4389 172.271 16.4389C171.69 16.4389 171.146 16.5704 170.638 16.8335C170.13 17.0966 169.649 17.455 169.195 17.9086V28.0063H165.834V7.78369H169.195V15.5407Z" fill="white"/>
<path d="M37.6601 4.795C31.7089 -2.94516 19.9968 1.62202 19.9968 9.48237C19.9968 1.62202 8.284 -2.94554 2.33198 4.795C-3.81959 12.7971 2.2436 26.8148 19.9964 34.8671C37.7485 26.8148 43.8116 12.7971 37.6601 4.795Z" fill="#FFBA33"/>
</svg>
