<svg width="1440" height="3020" viewBox="0 0 1440 3020" fill="none" xmlns="http://www.w3.org/2000/svg" preserveAspectRatio="none">
<path d="M-176.468 1723.02C9.96037 2030.5 329.257 2136.36 628.28 2136.36C1074.74 2136.36 1226.33 1964.97 1496.26 1747.14C2139.83 1227.8 1520.42 736.14 1311.96 433.353C1014.71 1.58426 327.427 -169.742 19.7927 206.368C-287.841 582.478 -498.201 1192.36 -176.468 1723.02Z" fill="#FAFAFA"/>
<path d="M257.275 1207.07C-50.1593 1306.78 -156 1477.55 -156 1637.48C-156 1876.27 15.3631 1957.34 233.152 2101.71C752.408 2445.92 1243.99 2114.63 1546.72 2003.14C1978.42 1844.16 2149.71 1476.57 1773.67 1312.04C1397.62 1147.51 787.84 1035 257.275 1207.07Z" fill="white"/>
<path d="M1542.51 3574.74C1305.52 3845.18 972.688 3893.98 678.208 3842.06C238.529 3764.53 119.009 3569.42 -108.998 3308.03C-652.613 2684.82 42.7633 2308.19 300.635 2046.2C668.354 1672.61 1374.94 1623.23 1612.59 2047.05C1850.24 2470.86 1951.5 3108.01 1542.51 3574.74Z" fill="#FFF9ED"/>
</svg>
