<svg width="375" height="3512" viewBox="0 0 375 3512" fill="none" xmlns="http://www.w3.org/2000/svg" preserveAspectRatio="none">
<g clip-path="url(#clip0_220_1289)">
<rect y="795" width="375" height="834" fill="#FAFAFA"/>
<path d="M-158.829 1617.58C-321.636 1670.38 -377.686 1760.82 -377.686 1845.51C-377.686 1971.96 -286.938 2014.9 -171.603 2091.35C103.378 2273.63 363.701 2098.2 524.02 2039.15C752.632 1954.96 843.345 1760.3 644.203 1673.17C445.062 1586.04 122.141 1526.46 -158.829 1617.58Z" fill="white"/>
<path d="M691.999 3033.93C587.331 3206.57 408.066 3266 240.182 3266C-10.4787 3266 -95.5846 3169.77 -247.135 3047.48C-608.464 2755.9 -260.703 2479.86 -143.665 2309.86C23.2281 2067.45 409.093 1971.26 581.811 2182.42C754.529 2393.59 872.633 2736 691.999 3033.93Z" fill="#FFF9ED"/>
<rect y="3127" width="375" height="385" fill="#FFF9ED"/>
<path d="M-191.484 725.948C-112.96 855.425 21.5269 900 147.475 900C335.524 900 399.372 827.83 513.067 736.108C784.141 517.423 523.246 310.395 435.443 182.897C310.237 1.08808 20.7563 -71.0539 -108.819 87.3182C-238.394 245.69 -326.998 502.5 -191.484 725.948Z" fill="#FAFAFA"/>
</g>
<defs>
<clipPath id="clip0_220_1289">
<rect width="375" height="3512" fill="white"/>
</clipPath>
</defs>
</svg>
