<svg width="160" height="28" viewBox="0 0 160 28" fill="none" xmlns="http://www.w3.org/2000/svg">
<path d="M12.2718 2.96717C13.0432 1.64264 14.9568 1.64264 15.7282 2.96718L18.0824 7.009C18.365 7.4942 18.8385 7.83826 19.3873 7.95709L23.9588 8.94703C25.4569 9.27144 26.0482 11.0913 25.0269 12.2343L21.9104 15.7222C21.5362 16.1409 21.3554 16.6976 21.4119 17.2563L21.8831 21.9099C22.0375 23.4349 20.4894 24.5597 19.0868 23.9416L14.8065 22.0554C14.2927 21.829 13.7073 21.829 13.1935 22.0554L8.91323 23.9416C7.51055 24.5597 5.9625 23.4349 6.11691 21.9099L6.58808 17.2563C6.64465 16.6976 6.46377 16.1409 6.08964 15.7222L2.97311 12.2343C1.9518 11.0913 2.54311 9.27144 4.04121 8.94703L8.61269 7.95709C9.16147 7.83826 9.63502 7.4942 9.91763 7.009L12.2718 2.96717Z" fill="#FFBA33"/>
<path d="M45.2718 2.96717C46.0432 1.64264 47.9568 1.64264 48.7282 2.96718L51.0824 7.009C51.365 7.4942 51.8385 7.83826 52.3873 7.95709L56.9588 8.94703C58.4569 9.27144 59.0482 11.0913 58.0269 12.2343L54.9104 15.7222C54.5362 16.1409 54.3554 16.6976 54.4119 17.2563L54.8831 21.9099C55.0375 23.4349 53.4894 24.5597 52.0868 23.9416L47.8065 22.0554C47.2927 21.829 46.7073 21.829 46.1935 22.0554L41.9132 23.9416C40.5106 24.5597 38.9625 23.4349 39.1169 21.9099L39.5881 17.2563C39.6446 16.6976 39.4638 16.1409 39.0896 15.7222L35.9731 12.2343C34.9518 11.0913 35.5431 9.27144 37.0412 8.94703L41.6127 7.95709C42.1615 7.83826 42.635 7.4942 42.9176 7.009L45.2718 2.96717Z" fill="#FFBA33"/>
<path d="M78.2718 2.96717C79.0432 1.64264 80.9568 1.64264 81.7282 2.96718L84.0824 7.009C84.365 7.4942 84.8385 7.83826 85.3873 7.95709L89.9588 8.94703C91.4569 9.27144 92.0482 11.0913 91.0269 12.2343L87.9104 15.7222C87.5362 16.1409 87.3554 16.6976 87.4119 17.2563L87.8831 21.9099C88.0375 23.4349 86.4894 24.5597 85.0868 23.9416L80.8065 22.0554C80.2927 21.829 79.7073 21.829 79.1935 22.0554L74.9132 23.9416C73.5106 24.5597 71.9625 23.4349 72.1169 21.9099L72.5881 17.2563C72.6446 16.6976 72.4638 16.1409 72.0896 15.7222L68.9731 12.2343C67.9518 11.0913 68.5431 9.27144 70.0412 8.94703L74.6127 7.95709C75.1615 7.83826 75.635 7.4942 75.9176 7.009L78.2718 2.96717Z" fill="#FFBA33"/>
<path d="M111.272 2.96717C112.043 1.64264 113.957 1.64264 114.728 2.96718L117.082 7.009C117.365 7.4942 117.839 7.83826 118.387 7.95709L122.959 8.94703C124.457 9.27144 125.048 11.0913 124.027 12.2343L120.91 15.7222C120.536 16.1409 120.355 16.6976 120.412 17.2563L120.883 21.9099C121.038 23.4349 119.489 24.5597 118.087 23.9416L113.806 22.0554C113.293 21.829 112.707 21.829 112.194 22.0554L107.913 23.9416C106.511 24.5597 104.962 23.4349 105.117 21.9099L105.588 17.2563C105.645 16.6976 105.464 16.1409 105.09 15.7222L101.973 12.2343C100.952 11.0913 101.543 9.27144 103.041 8.94703L107.613 7.95709C108.161 7.83826 108.635 7.4942 108.918 7.009L111.272 2.96717Z" fill="#FFBA33"/>
<path d="M144.92 3.34465C145.402 2.51682 146.598 2.51682 147.08 3.34465L149.434 7.38647L150.082 7.009L149.434 7.38648C149.823 8.05363 150.474 8.5267 151.229 8.69011L155.8 9.68004C156.736 9.8828 157.106 11.0202 156.468 11.7346L153.351 15.2225C152.837 15.7982 152.588 16.5637 152.666 17.3318L153.137 21.9855C153.233 22.9386 152.266 23.6416 151.389 23.2552L147.109 21.3691C146.402 21.0577 145.598 21.0577 144.891 21.3691L140.611 23.2552C139.734 23.6416 138.767 22.9386 138.863 21.9855L139.334 17.3318C139.412 16.5637 139.163 15.7982 138.649 15.2225L135.532 11.7346C134.894 11.0202 135.264 9.8828 136.2 9.68004L140.771 8.69011C141.526 8.5267 142.177 8.05363 142.566 7.38647L144.92 3.34465Z" fill="white" stroke="#CCC5B8" stroke-width="1.5"/>
</svg>
