<svg width="160" height="28" viewBox="0 0 160 28" fill="none" xmlns="http://www.w3.org/2000/svg">
<path d="M12.2718 2.96717C13.0432 1.64264 14.9568 1.64264 15.7282 2.96718L18.0824 7.009C18.365 7.4942 18.8385 7.83826 19.3873 7.95709L23.9588 8.94703C25.4569 9.27144 26.0482 11.0913 25.0269 12.2343L21.9104 15.7222C21.5362 16.1409 21.3554 16.6976 21.4119 17.2563L21.8831 21.9099C22.0375 23.4349 20.4894 24.5597 19.0868 23.9416L14.8065 22.0554C14.2927 21.829 13.7073 21.829 13.1935 22.0554L8.91323 23.9416C7.51055 24.5597 5.9625 23.4349 6.11691 21.9099L6.58808 17.2563C6.64465 16.6976 6.46377 16.1409 6.08964 15.7222L2.97311 12.2343C1.9518 11.0913 2.54311 9.27144 4.04121 8.94703L8.61269 7.95709C9.16147 7.83826 9.63502 7.4942 9.91763 7.009L12.2718 2.96717Z" fill="white"/>
<path d="M45.2718 2.96717C46.0432 1.64264 47.9568 1.64264 48.7282 2.96718L51.0824 7.009C51.365 7.4942 51.8385 7.83826 52.3873 7.95709L56.9588 8.94703C58.4569 9.27144 59.0482 11.0913 58.0269 12.2343L54.9104 15.7222C54.5362 16.1409 54.3554 16.6976 54.4119 17.2563L54.8831 21.9099C55.0375 23.4349 53.4894 24.5597 52.0868 23.9416L47.8065 22.0554C47.2927 21.829 46.7073 21.829 46.1935 22.0554L41.9132 23.9416C40.5106 24.5597 38.9625 23.4349 39.1169 21.9099L39.5881 17.2563C39.6446 16.6976 39.4638 16.1409 39.0896 15.7222L35.9731 12.2343C34.9518 11.0913 35.5431 9.27144 37.0412 8.94703L41.6127 7.95709C42.1615 7.83826 42.635 7.4942 42.9176 7.009L45.2718 2.96717Z" fill="white"/>
<path d="M78.2718 2.96717C79.0432 1.64264 80.9568 1.64264 81.7282 2.96718L84.0824 7.009C84.365 7.4942 84.8385 7.83826 85.3873 7.95709L89.9588 8.94703C91.4569 9.27144 92.0482 11.0913 91.0269 12.2343L87.9104 15.7222C87.5362 16.1409 87.3554 16.6976 87.4119 17.2563L87.8831 21.9099C88.0375 23.4349 86.4894 24.5597 85.0868 23.9416L80.8065 22.0554C80.2927 21.829 79.7073 21.829 79.1935 22.0554L74.9132 23.9416C73.5106 24.5597 71.9625 23.4349 72.1169 21.9099L72.5881 17.2563C72.6446 16.6976 72.4638 16.1409 72.0896 15.7222L68.9731 12.2343C67.9518 11.0913 68.5431 9.27144 70.0412 8.94703L74.6127 7.95709C75.1615 7.83826 75.635 7.4942 75.9176 7.009L78.2718 2.96717Z" fill="white"/>
<path d="M111.272 2.96717C112.043 1.64264 113.957 1.64264 114.728 2.96718L117.082 7.009C117.365 7.4942 117.839 7.83826 118.387 7.95709L122.959 8.94703C124.457 9.27144 125.048 11.0913 124.027 12.2343L120.91 15.7222C120.536 16.1409 120.355 16.6976 120.412 17.2563L120.883 21.9099C121.038 23.4349 119.489 24.5597 118.087 23.9416L113.806 22.0554C113.293 21.829 112.707 21.829 112.194 22.0554L107.913 23.9416C106.511 24.5597 104.962 23.4349 105.117 21.9099L105.588 17.2563C105.645 16.6976 105.464 16.1409 105.09 15.7222L101.973 12.2343C100.952 11.0913 101.543 9.27144 103.041 8.94703L107.613 7.95709C108.161 7.83826 108.635 7.4942 108.918 7.009L111.272 2.96717Z" fill="white"/>
<path d="M146.864 3.47048L149.218 7.5123C149.642 8.2401 150.352 8.75619 151.176 8.93444L155.747 9.92438C156.496 10.0866 156.792 10.9965 156.281 11.568L153.165 15.0559C152.603 15.684 152.332 16.519 152.417 17.357L152.888 22.0107C152.965 22.7732 152.191 23.3355 151.49 23.0265L147.21 21.1403C146.439 20.8007 145.561 20.8007 144.79 21.1403L140.51 23.0265C139.809 23.3355 139.035 22.7732 139.112 22.0107L139.583 17.357C139.668 16.519 139.397 15.684 138.835 15.0559L135.719 11.568C135.208 10.9965 135.504 10.0866 136.253 9.92438L140.824 8.93444C141.648 8.75619 142.358 8.2401 142.782 7.5123L145.136 3.47047C145.522 2.80821 146.478 2.80821 146.864 3.47048Z" stroke="white" stroke-width="2"/>
</svg>
