<?xml version="1.0" encoding="iso-8859-1"?>
<!-- Uploaded to: SVG Repo, www.svgrepo.com, Generator: SVG Repo Mixer Tools -->
<svg height="800px" width="800px" version="1.1" id="Layer_1" xmlns="http://www.w3.org/2000/svg" xmlns:xlink="http://www.w3.org/1999/xlink" 
	 viewBox="0 0 512 512" xml:space="preserve">
<polygon style="fill:#FFAE33;" points="399.428,0 399.428,37.305 429.736,37.305 282.997,200.059 282.997,255.77 455.385,64.568 
	455.385,93.263 492.69,93.263 492.69,0 "/>
<path style="fill:#FF318F;" d="M446.887,172.289c-2.021-29.878-15.482-57.118-37.904-76.702
	c-46.43-40.549-117.182-35.784-157.756,10.608l-17.97,20.257l-17.969-20.255c-19.58-22.388-46.798-35.828-76.651-37.846
	c-29.886-2.019-58.683,7.653-81.106,27.236C11.083,136.154,6.297,206.946,46.863,253.395l151.778,168.863
	c8.814,9.806,21.431,15.429,34.615,15.429c13.185,0,25.801-5.623,34.615-15.429l151.602-168.664l0.177-0.199
	C439.235,230.972,448.907,202.167,446.887,172.289z"/>
<polygon style="fill:#FFDB2D;" points="261.618,277.975 233.894,253.013 85.768,418.737 19.835,418.737 19.835,456.042 
	75.792,456.042 75.792,512 113.097,512 113.097,444.138 "/>
<path style="fill:#BF256B;" d="M446.887,172.289c-2.021-29.878-15.482-57.118-37.904-76.702
	c-46.43-40.549-117.182-35.784-157.756,10.608l-17.97,20.257v311.235c13.185,0,25.801-5.623,34.615-15.429l151.602-168.664
	l0.177-0.199C439.235,230.972,448.907,202.167,446.887,172.289z"/>
</svg>